<?xml version="1.0" encoding="utf-8"?>
<!-- Generator: Adobe Illustrator 19.2.0, SVG Export Plug-In . SVG Version: 6.00 Build 0)  -->
<svg version="1.1" id="Layer_1" xmlns="http://www.w3.org/2000/svg" xmlns:xlink="http://www.w3.org/1999/xlink" x="0px" y="0px"
	 viewBox="0 0 1920 1080" style="enable-background:new 0 0 1920 1080;" xml:space="preserve">
<style type="text/css">
	.st0{fill:#8C6239;}
	.st1{fill:#754C24;}
	.st2{fill:#603813;}
	.st3{fill:#A67C52;}
	.st4{fill:#333333;}
	.st5{fill:#405A7F;}
	.st6{fill:#4D4D4D;}
	.st7{fill:#2F455B;}
	.st8{fill:#F8C09D;}
	.st9{fill:#F2F2F2;}
	.st10{fill:#FFFFFF;}
	.st11{fill:#BF844F;}
	.st12{fill:#A06D42;}
	.st13{fill:none;stroke:#8C6239;stroke-width:4.5315;stroke-linecap:round;stroke-miterlimit:10;}
</style>
<g>
	<path class="st0" d="M1035.2,595.7H702.9V407.2c0-43.2,35-78.2,78.2-78.2H957c43.2,0,78.2,35,78.2,78.2V595.7z"/>
	<rect x="1035.2" y="515" class="st1" width="119.1" height="146"/>
	<polygon class="st2" points="1096.7,635.5 790.5,635.5 790.5,595.7 1035.2,595.7 	"/>
	<rect x="790.5" y="664.5" class="st0" width="305.9" height="34.4"/>
	<path class="st0" d="M863.8,791.9H690.6c-12.5,0-22.6-30.1-22.6-42.6V570.7h195.7V791.9z"/>
	<path class="st0" d="M1095.7,791.9h48.8c12.5,0,22.6-10.1,22.6-22.6v-202h-71.3V791.9z"/>
	<circle class="st0" cx="1153.3" cy="572.7" r="58.4"/>
	<path class="st2" d="M752.7,819L752.7,819c-8.9,0-16.1-7.2-16.1-16.1v-11h32.2v11C768.8,811.8,761.6,819,752.7,819z"/>
	<path class="st2" d="M1134.2,819L1134.2,819c-8.9,0-16.1-7.2-16.1-16.1v-11h32.2v11C1150.3,811.8,1143.1,819,1134.2,819z"/>
	<rect x="863.6" y="635.1" class="st3" width="232.7" height="45.6"/>
	<rect x="863.6" y="691.8" class="st1" width="232.7" height="100.1"/>
	<rect x="863.6" y="680.7" class="st2" width="232.7" height="11.1"/>
	<g>
		<rect x="819.4" y="572.1" class="st4" width="141.5" height="29.7"/>
		<path class="st5" d="M842.8,364.5h84.1c18.7,0,33.9,15.2,33.9,33.9v173.6h-152V398.4C808.8,379.7,824,364.5,842.8,364.5z"/>
		<path class="st1" d="M1058,794l10,39h81.3c0,0-3-18-22.9-21.5c-19.8-3.6-36.6,7.7-36.6,7.7l-13-25.2H1058z"/>
		<path class="st1" d="M1134,794l10,39h81.3c0,0-3-18-22.9-21.5c-19.8-3.6-36.6,7.7-36.6,7.7l-15.2-29.5L1134,794z"/>
		<path class="st4" d="M997.7,588.9l-96.3-10.1l-8.8,28.6c-3.3,10.9,2.7,22.4,13.6,25.7l118.5,7.7l97.8,158.9l39.6-11.5L1072.9,638
			c-15.8-28.8-29-43.9-53.5-46.6L997.7,588.9z"/>
		<path class="st6" d="M925.8,589.4l-106.7-10.6l-1.1,28.6c-0.9,14.1,2.7,22.4,13.6,25.7l118.5,7.7l104.1,170l40-10.6L998.3,638
			c-11-21.3-12.7-36.2-46-45.7L925.8,589.4z"/>
		<path class="st7" d="M805.4,415.5l18.7-5.1c0,0,4.7,40.8,28.6,60.9c10.4,8.8,30.9,9.5,43.8,8.8c31.8-1.7,64.2-16.8,64.2-16.8
			l-0.2,109.6l-151.6-0.2L805.4,415.5z"/>
		<path class="st5" d="M984.9,528.9L984.9,528.9c-10.1,1.5-19.5-5.4-21-15.4l-18.5-120.7c-1.5-10.1,5.4-19.5,15.4-21h0
			c10.1-1.5,18.9,11,22.1,25.7l17.4,110.4C1001.9,518,995,527.4,984.9,528.9z"/>
		<path class="st5" d="M925.1,501.1L925.1,501.1c3.3-9.7,13.7-14.8,23.4-11.6l98.3,33.2l-11.8,35l-98.3-33.2
			C927,521.2,921.8,510.8,925.1,501.1z"/>
		<path class="st8" d="M1036.2,553.6c0,0,7.7,4.1,16.7,10.9s10.1,7.6,13.2,9.2c3.1,1.7,8.7-3,2-8.9c-6.7-5.9-4.3-6.5-0.4-4.1
			c3.9,2.4,7.7,5.8,9.9,12.3c2.2,6.5,7.1,11.3,10.2,6.8c3.1-4.4-0.4-8.5-0.4-8.5s5,3.9,7.3,0s0-10.4-1.8-13.7c0,0,4.1-3.7-0.6-8.1
			c-4.7-4.4-11.6-13.4-17.4-17.5s-30.8-1.1-30.8-1.1L1036.2,553.6z"/>
		<path class="st5" d="M823.7,531.9L823.7,531.9c-10.1,1.5-19.5-5.4-21-15.4l-18.5-120.7c-1.5-10.1,5.4-19.5,15.4-21l0,0
			c10.1-1.5,19.5,5.4,21,15.4l18.5,120.7C840.7,521,833.8,530.4,823.7,531.9z"/>
		<path class="st5" d="M793.7,376.7c0,0,20.6-11.7,49-12.2c18.1-0.3-27.7,27.7-27.7,27.7L793.7,376.7z"/>
		<path class="st5" d="M807.1,515.3L807.1,515.3c2.1-10,12-16.3,21.9-14.2L930.4,523l-7.8,36.1l-101.4-21.8
			C811.3,535.1,804.9,525.3,807.1,515.3z"/>
		<path class="st8" d="M923.4,554.9c0,0,8.1,3.3,17.9,9c9.8,5.7,10.9,6.4,14.1,7.7c3.3,1.3,8.3-4,1-9.1c-7.3-5.1-5-5.9-0.8-4
			c4.2,1.9,8.3,4.9,11.2,11.1c2.9,6.2,8.3,10.4,10.9,5.6c2.6-4.8-1.3-8.4-1.3-8.4s5.4,3.3,7.3-0.9s-1.2-10.3-3.3-13.4
			c0,0,3.7-4.1-1.5-8c-5.2-3.9-13.1-12-19.3-15.4c-6.2-3.4-30.7,2.4-30.7,2.4L923.4,554.9z"/>
		<path class="st5" d="M928.3,365c0,0,36.4-2.8,45.9,13.2c8.6,14.3-17.8,22.3-17.8,22.3L928.3,365z"/>
	</g>
	<g>
		<path class="st9" d="M1094.5,594.1H860.4c-3,0-5.5-2.4-5.5-5.5l0,0c0-3,2.4-5.5,5.5-5.5h234.1c3,0,5.5,2.4,5.5,5.5l0,0
			C1099.9,591.7,1097.5,594.1,1094.5,594.1z"/>
		<path class="st9" d="M1108.1,594.1H918.9c-3.3,0-6.1-2.7-6.1-6.1L933,454.5c0-3.3,2.7-6.1,6.1-6.1h189.1c3.3,0,6.1,2.7,6.1,6.1
			L1114.1,588C1114.1,591.4,1111.4,594.1,1108.1,594.1z"/>
		<path class="st10" d="M918.7,593.8L938.8,460c0-3.3,3.4-7,6.7-7h188.7c-0.2-2-2.8-5-6-5H939c-3.3,0-6.6,3.2-6.6,6.5L912.3,588
			c0,3.3,3.3,6,6.6,6h0.5C919.4,594,918.7,593.9,918.7,593.8z"/>
		<circle class="st10" cx="1033.3" cy="521.3" r="20.4"/>
	</g>
	<circle class="st3" cx="827.1" cy="573.4" r="58.4"/>
	<path class="st3" d="M685.3,589.4h141.9V515H685.3c-20.5,0-37.2,16.6-37.2,37.2v0C648.1,572.7,664.7,589.4,685.3,589.4z"/>
	<path class="st11" d="M920.3,369.4c0,13.4-10.9,24.5-24.3,24.5h0h-0.2c-13.4,0-24.5-11.1-24.5-24.5v-21.5h49V369.4z"/>
	<path class="st12" d="M871.3,363.8c9.5,4.1,19.4,6.3,28.9,6.3c6.6,0,13.4-1.1,20.1-3.1v-15.5h-49V363.8z"/>
	<g>
		<path class="st2" d="M1008.6,217.8c-1.9-9.7-9.7-16.8-18.9-18.3c5-6.6,7.2-15.2,5.5-24c-3-15.7-17.4-26.2-33-24.6
			c0.6-3.3,0.7-6.8,0-10.3c-2.8-14.6-16.9-24.2-31.5-21.4c-7.2,1.4-13.2,5.5-17.1,11.1c0-0.1,0-0.1,0-0.2
			c-2.6-13.6-15.7-22.5-29.3-19.9c-8.6,1.6-15.4,7.5-18.5,15.1c-6.4-5-14.8-7.3-23.4-5.7c-13,2.5-22.3,13.3-23.5,25.9
			c-4.7-1.7-10-2.2-15.3-1.2c-15.8,3-26.1,18.2-23.1,34c0.4,2.1,1,4.2,1.9,6.1c-16.6,3.3-27.4,19.4-24.2,36
			c2.1,11.2,10,19.8,20,23.3c-6.3,5.1-9.6,13.4-8,21.8c1.8,9.3,9,16.2,17.7,17.9c-1.8,3.6-2.5,7.9-1.6,12.1
			c1.9,9.9,11.1,16.6,20.9,15.6c-0.5,2.4-0.5,5,0,7.6c2.1,10.8,12.5,17.9,23.3,15.8c7.5-1.4,13.1-6.9,15.3-13.6
			c16.9,7.5,36.1,10.1,55.6,6.4c19.8-3.8,36.9-13.5,49.8-27c4.5,6.5,12.5,10,20.8,8.5c11.2-2.1,18.6-13,16.4-24.2
			c-0.4-2-1.1-3.9-1.9-5.6c0.6-0.1,1.2-0.2,1.8-0.3c12.7-2.4,21-14.7,18.6-27.4c-0.9-4.6-3.1-8.7-6.1-11.8
			C1006.9,234.5,1010.2,226.2,1008.6,217.8z"/>
		<path class="st11" d="M901.7,360.3c-34.9,0-76.8-30.5-76.8-73.2v-66.2c0-34.4,27.9-62.4,62.4-62.4h29.4
			c34.4,0,62.4,27.9,62.4,62.4v66.2C978.9,329.8,948.6,360.3,901.7,360.3z"/>
		<rect x="806.7" y="215.6" class="st2" width="36.3" height="39"/>
		<circle class="st11" cx="824.5" cy="252.4" r="21.9"/>
		<path class="st0" d="M820.1,255.5c0-4.3,3.5-7.8,7.8-7.8c1.2,0,2.3,0.3,3.3,0.7c-1.4-2.3-3.8-3.8-6.7-3.8c-4.3,0-7.8,3.5-7.8,7.8
			c0,3.1,1.8,5.8,4.5,7C820.5,258.3,820.1,256.9,820.1,255.5z"/>
		<ellipse class="st4" cx="903.5" cy="255" rx="5" ry="8.8"/>
		<ellipse class="st4" cx="967" cy="255" rx="5" ry="8.8"/>
		<path class="st0" d="M930.4,264.1V280c0,0.7,0.9,1.3,1.6,1.3h9.4c2.6,0,4-3,2.3-4.9l-10.9-13C932.1,262.4,930.4,262.9,930.4,264.1
			z"/>
		<path class="st13" d="M909.9,290.1c0,13.6,11.1,24.7,24.7,24.7h0c13.6,0,24.7-11.1,24.7-24.7"/>
		<path class="st2" d="M983.1,193.9v-8.5c0-16.8-13.6-30.4-30.4-30.4h-97.1c-16.8,0-30.4,13.6-30.4,30.4v23.3c-1,2.8-1,5.6,0,8.4
			l3.4,6.5c5.5,6,15.2,7.2,23.4,2.5c7.8-4.5,11.6-12.9,9.9-20.4l1.9-1c2.8,1.5,6,2.4,9.4,2.4c8.7,0,16.1-5.7,18.6-13.7
			c3.2,9,12.5,15.5,23.4,15.5c8.1,0,15.4-3.6,19.8-9.2c1.6,6.4,6,12.6,12.6,16.8c12.2,7.7,27.4,5.7,33.9-4.4
			C984.9,206.7,985.1,200.1,983.1,193.9z"/>
	</g>
</g>
</svg>
