<?xml version="1.0" encoding="utf-8"?>
<!-- Generator: Adobe Illustrator 19.2.0, SVG Export Plug-In . SVG Version: 6.00 Build 0)  -->
<svg version="1.1" id="Layer_1" xmlns="http://www.w3.org/2000/svg" xmlns:xlink="http://www.w3.org/1999/xlink" x="0px" y="0px"
	 viewBox="0 0 1920 1080" style="enable-background:new 0 0 1920 1080;" xml:space="preserve">
<style type="text/css">
	.st0{fill:#405A7F;}
	.st1{fill:#754C24;}
	.st2{fill:#333333;}
	.st3{fill:#4D4D4D;}
	.st4{fill:#BF844F;}
	.st5{fill:#A06D42;}
	.st6{fill:#603813;}
	.st7{fill:#8C6239;}
	.st8{fill:none;stroke:#8C6239;stroke-width:4.5315;stroke-linecap:round;stroke-miterlimit:10;}
</style>
<g>
	<path class="st0" d="M1008.4,445.6L1008.4,445.6c-5.2,8.7-2.4,20.1,6.3,25.3c0,0,21.4,40.8,76,72.7c54.7,31.9,88.6,26.2,88.6,26.2
		c8.7,5.2,20.1,2.4,25.3-6.3h0c5.2-8.7,2.4-20.1-6.3-25.3c0,0-34.2,6.5-90.3-27.2c-56.1-33.7-74.4-71.7-74.4-71.7
		C1025,434,1013.7,436.8,1008.4,445.6z"/>
	<path class="st1" d="M744.2,762.9l-36.7-18.3l-36.4,72.1c0,0,17.8,5.5,29.8-10.7c12-16.1,9.4-36.2,9.4-36.2l25.4,10.3L744.2,762.9z
		"/>
	<path class="st2" d="M747.5,751.8l-16.3,35c0,0,129.5,57,168-16c33.1-62.7,67.5-135,67.5-135l-37.6-16.3c0,0-32.3,71.9-68.4,137.1
		C841.3,791.8,747.5,751.8,747.5,751.8z"/>
	<path class="st3" d="M941.8,694.1l-1.3-0.2c-41.1-6.7-68.8-45.9-62.1-87l0-0.2l150,24.6l0,0.2
		C1021.6,672.6,982.8,700.8,941.8,694.1z"/>
	<path class="st1" d="M1110.7,893.2l15.6,37.9l74.9-30.4c0,0-9.8-15.8-29.5-11.5c-19.7,4.3-30.9,21.1-30.9,21.1l-12.4-24.4
		L1110.7,893.2z"/>
	<path class="st3" d="M1102.9,898.8l37.3-18c0,0-21.6-59-47.9-117.9c-36.7-82.3-151.5-113.6-151.5-113.6l-16.6,40
		c0,0,97,24.5,128.6,85.2C1083.2,832.6,1102.9,898.8,1102.9,898.8z"/>
	<path class="st0" d="M994.1,415.3L994.1,415.3c37.5,6.1,62.9,41.5,56.8,79.1c0,0-27.9,45.3-22.4,136.9c0.2,2.8-150-24.6-150-24.6
		l1-11.7c7-62.4,28.9-127,51.2-161.5C941.6,416.6,974.7,412.1,994.1,415.3z"/>
	<path class="st0" d="M787.9,554.8L787.9,554.8c5.9,8.3,17.4,10.3,25.7,4.5c0,0,27.2-50.6,56.8-71.4c29.6-20.8,94.9-35.3,94.9-35.3
		c8.3-5.9,10.3-17.4,4.5-25.7l0,0c-5.9-8.3-17.4-10.3-25.7-4.5c0,0-64.2,13.6-94.3,34.8s-57.5,71.9-57.5,71.9
		C784,534.9,782,546.4,787.9,554.8z"/>
	<g>
		<path class="st4" d="M785.2,546.9l-7.2-8.8l-27.6,22.4c-2.4,2-2.8,5.6-0.8,8l0,0c2,2.4,5.6,2.8,8,0.8L785.2,546.9z"/>
		<path class="st4" d="M792.5,556.1l-7.5-8.6l-32.4,28.2c-2.4,2.1-2.6,5.6-0.6,8l0,0c2.1,2.4,5.6,2.6,8,0.6L792.5,556.1z"/>
		<path class="st4" d="M796.2,566.6l-8.3-7.7l-29.2,31.5c-2.1,2.3-2,5.9,0.3,8l0,0c2.3,2.1,5.9,2,8-0.3L796.2,566.6z"/>
		<path class="st4" d="M805.6,568l-9.6-6.1l-22.9,36.3c-1.7,2.7-0.9,6.2,1.8,7.8v0c2.7,1.7,6.2,0.9,7.8-1.8L805.6,568z"/>
		<path class="st4" d="M812.3,563.6l-11.3-1.1l-2.5,25.7c-0.3,3.1,2,5.9,5.1,6.2l0,0c3.1,0.3,5.9-2,6.2-5.1L812.3,563.6z"/>
		<path class="st4" d="M809.6,570.2l-6.2,6.6c-1.1,1.2-3,1.3-4.2,0.2l-29.1-27c-1.2-1.1-1.3-3-0.2-4.2l6.2-6.6
			c4.3-4.6,11.4-4.9,16-0.6l16.9,15.6C813.6,558.4,813.9,565.6,809.6,570.2z"/>
	</g>
	<g>
		<path class="st4" d="M1192.2,565.6l-2.5,11.1l34.6,7.9c3.1,0.7,6.1-1.2,6.8-4.3l0,0c0.7-3.1-1.2-6.1-4.3-6.8L1192.2,565.6z"/>
		<path class="st4" d="M1194.9,554.1l-2.1,11.2l42.1,8.1c3.1,0.6,6.1-1.4,6.7-4.5l0,0c0.6-3.1-1.4-6.1-4.5-6.7L1194.9,554.1z"/>
		<path class="st4" d="M1200.9,544.7l-0.9,11.3l42.8,3.5c3.1,0.3,5.9-2.1,6.1-5.2l0,0c0.3-3.1-2.1-5.9-5.2-6.1L1200.9,544.7z"/>
		<path class="st4" d="M1196.2,536.5l1.2,11.3l42.7-4.4c3.1-0.3,5.4-3.1,5.1-6.2v0c-0.3-3.1-3.1-5.4-6.2-5.1L1196.2,536.5z"/>
		<path class="st4" d="M1188.5,534l6.1,9.6l21.8-13.9c2.6-1.7,3.4-5.2,1.7-7.8l0,0c-1.7-2.6-5.2-3.4-7.8-1.7L1188.5,534z"/>
		<path class="st4" d="M1195.4,532l9,0.7c1.7,0.1,2.9,1.6,2.7,3.2l-3.3,39.5c-0.1,1.7-1.6,2.9-3.2,2.7l-9-0.7
			c-6.2-0.5-10.9-6-10.4-12.2l1.9-22.9C1183.7,536.1,1189.2,531.5,1195.4,532z"/>
	</g>
	<path class="st4" d="M1028.3,430.9c-3,13.1-16.1,21.4-29.1,18.4l0,0l-0.2-0.1c-13.1-3-21.4-16.3-18.4-29.3l4.9-21l47.7,11
		L1028.3,430.9z"/>
	<path class="st5" d="M981.8,414.5c8.3,6.1,17.5,10.5,26.7,12.7c6.4,1.5,13.3,2,20.3,1.5l3.5-15.1l-47.7-11L981.8,414.5z"/>
	<g>
		<path class="st6" d="M1153.8,305.2c0.7-9.9-5.1-18.8-13.7-22.5c6.5-5.2,10.9-12.9,11.5-21.8c1.1-15.9-10.2-29.8-25.7-32.2
			c1.5-3,2.4-6.4,2.6-9.9c1-14.9-10.2-27.7-25.1-28.7c-7.3-0.5-14.2,2-19.4,6.4c0-0.1,0-0.1,0-0.2c0.9-13.8-9.5-25.7-23.3-26.7
			c-8.8-0.6-16.8,3.4-21.7,9.9c-4.9-6.4-12.5-10.8-21.2-11.4c-13.2-0.9-25,7.2-29.3,19.1c-4.1-2.9-9.1-4.7-14.5-5
			c-16-1.1-29.9,11-31,27c-0.1,2.2,0,4.3,0.3,6.4c-16.9-1-31.4,11.8-32.6,28.7c-0.8,11.3,4.7,21.7,13.5,27.6
			c-7.4,3.3-12.7,10.5-13.3,19.1c-0.6,9.4,4.6,17.9,12.6,21.9c-2.7,3.1-4.4,7-4.7,11.3c-0.7,10.1,6.5,18.9,16.3,20.4
			c-1.1,2.2-1.8,4.7-2,7.3c-0.7,11,7.5,20.4,18.5,21.2c7.6,0.5,14.5-3.3,18.2-9.3c14.4,11.5,32.3,18.9,52.1,20.3
			c20.1,1.4,39.1-3.7,55.1-13.4c2.7,7.4,9.6,12.9,18,13.5c11.4,0.8,21.2-7.8,22-19.2c0.1-2,0-4-0.5-5.9c0.6,0.1,1.2,0.2,1.8,0.2
			c12.9,0.9,24.1-8.9,25-21.8c0.3-4.7-0.8-9.2-2.9-13C1147.9,320.9,1153.2,313.8,1153.8,305.2z"/>
		<path class="st4" d="M1014.3,415.8c-33.7-8.9-66.6-49-55.7-90.3l16.8-64c8.7-33.3,42.8-53.2,76.1-44.5l28.4,7.5
			c33.3,8.7,53.2,42.8,44.5,76.1l-16.8,64C1096.7,406,1059.6,427.7,1014.3,415.8z"/>
		
			<rect x="953.6" y="255.8" transform="matrix(0.9672 0.2541 -0.2541 0.9672 101.8365 -237.8749)" class="st6" width="36.3" height="39"/>
		
			<ellipse transform="matrix(0.2541 -0.9672 0.9672 0.2541 438.9661 1152.965)" class="st4" cx="967" cy="291.9" rx="21.9" ry="21.9"/>
		<path class="st7" d="M961.9,293.7c1.1-4.1,5.3-6.6,9.5-5.5c1.1,0.3,2.2,0.8,3,1.6c-0.7-2.5-2.7-4.7-5.5-5.4
			c-4.1-1.1-8.4,1.4-9.5,5.5c-0.8,3,0.3,6,2.5,7.9C961.6,296.5,961.6,295.1,961.9,293.7z"/>
		
			<ellipse transform="matrix(0.2541 -0.9672 0.9672 0.2541 473.606 1243.139)" class="st2" cx="1042.8" cy="314.5" rx="8.8" ry="5"/>
		
			<ellipse transform="matrix(0.2541 -0.9672 0.9672 0.2541 503.8083 1314.5651)" class="st2" cx="1104.2" cy="330.7" rx="8.8" ry="5"/>
		<path class="st7" d="M1066.5,330.2l-4,15.3c-0.2,0.7,0.5,1.5,1.2,1.6l9.1,2.4c2.5,0.6,4.6-1.9,3.5-4.2l-7.2-15.4
			C1068.6,328.9,1066.8,329,1066.5,330.2z"/>
		<path class="st8" d="M1040,350.1c-3.5,13.2,4.4,26.7,17.6,30.2h0c13.2,3.5,26.7-4.4,30.2-17.6"/>
		<path class="st6" d="M1135.2,275.6l2.2-8.2c4.3-16.3-5.4-32.9-21.7-37.2l-93.9-24.7c-16.3-4.3-32.9,5.4-37.2,21.7l-5.9,22.5
			c-1.7,2.4-2.4,5.2-2.1,8.1l1.6,7.1c3.8,7.2,12.9,10.8,22,8.3c8.7-2.4,14.5-9.5,14.7-17.2l2.1-0.5c2.3,2.2,5.2,3.9,8.5,4.7
			c8.5,2.2,17.1-1.5,21.5-8.5c0.8,9.5,8.1,18.2,18.7,21c7.9,2.1,15.8,0.4,21.5-3.8c-0.1,6.6,2.6,13.7,7.9,19.4
			c9.8,10.6,25.1,12.5,33.9,4.3C1133.7,288.5,1135.6,282.1,1135.2,275.6z"/>
	</g>
</g>
</svg>
