<?xml version="1.0" encoding="utf-8"?>
<!-- Generator: Adobe Illustrator 19.2.0, SVG Export Plug-In . SVG Version: 6.00 Build 0)  -->
<svg version="1.1" id="Layer_1" xmlns="http://www.w3.org/2000/svg" xmlns:xlink="http://www.w3.org/1999/xlink" x="0px" y="0px"
	 viewBox="0 0 1920 1080" style="enable-background:new 0 0 1920 1080;" xml:space="preserve">
<style type="text/css">
	.st0{fill:#4D4D4D;}
	.st1{fill:#754C24;}
	.st2{fill:#F69B76;}
	.st3{fill:#F8C09D;}
	.st4{fill:#F6AE8D;}
	.st5{fill:#333333;}
	.st6{fill:#EF937E;}
	.st7{fill:none;stroke:#EF937E;stroke-width:4.5315;stroke-linecap:round;stroke-miterlimit:10;}
</style>
<path class="st0" d="M910.9,653h-1.3c-41.6,0-75.4-34.2-75.4-75.8V577h152v0.2C986.2,618.8,952.5,653,910.9,653z"/>
<path class="st1" d="M885.8,919l0,41l-80.8,0.4c0,0,3-18.4,22.9-21.9c19.8-3.6,36.6,7.8,36.6,7.8l2.1-27.3H885.8z"/>
<rect x="855.2" y="577" class="st0" width="41" height="342"/>
<path class="st1" d="M933.9,919l0,41l80.8,0.4c0,0-3-18.4-22.9-21.9c-19.8-3.6-36.6,7.8-36.6,7.8l-2.1-27.3H933.9z"/>
<rect x="923.2" y="577" transform="matrix(-1 -1.224647e-16 1.224647e-16 -1 1887.3459 1495.9427)" class="st0" width="41" height="342"/>
<path class="st2" d="M881.3,369.4H939c26,0,47.2,21.1,47.2,47.2V577h-152V416.6C834.2,390.5,855.3,369.4,881.3,369.4z"/>
<path class="st2" d="M1049.8,498.6L1049.8,498.6c7,7.4,18.7,7.7,26.1,0.7l99.8-94.4c7.4-7,7.7-18.7,0.7-26.1l0,0
	c-7-7.4-18.7-7.7-26.1-0.7l-99.8,94.4C1043.1,479.5,1042.8,491.2,1049.8,498.6z"/>
<path class="st2" d="M940.6,379.1L940.6,379.1c-6.7,7.6-6,19.3,1.6,26l102.9,91c7.6,6.7,19.3,6,26-1.6v0c6.7-7.6,6-19.3-1.6-26
	l-102.9-91C959,370.7,947.4,371.5,940.6,379.1z"/>
<g>
	<path class="st3" d="M1134.6,400.3L1134.6,400.3c3.4-1,5.3-4.6,4.2-8l-8.7-28.1c-1-3.4-4.6-5.3-8-4.2l0,0c-3.4,1-5.3,4.6-4.2,8
		l8.7,28.1C1127.6,399.5,1131.2,401.4,1134.6,400.3z"/>
	<path class="st3" d="M1162.8,423l7.6-7.1c3.3-3,3.4-8.2,0.4-11.4l-24-25.7c-3-3.3-8.2-3.4-11.4-0.4l-7.6,7.1
		c-3.5,3.2-3.7,8.7-0.4,12.2l23.2,24.9C1153.9,426.1,1159.3,426.3,1162.8,423z"/>
	<path class="st3" d="M1131.6,390.8L1131.6,390.8c2.4,2.6,6.5,2.7,9,0.3l43.5-40.5c2.6-2.4,2.7-6.5,0.3-9v0c-2.4-2.6-6.5-2.7-9-0.3
		l-43.5,40.5C1129.3,384.2,1129.2,388.2,1131.6,390.8z"/>
	<path class="st3" d="M1144.5,396.2L1144.5,396.2c2.4,2.6,6.5,2.7,9,0.3l21.5-20.1c2.6-2.4,2.7-6.5,0.3-9l0,0
		c-2.4-2.6-6.5-2.7-9-0.3l-21.5,20.1C1142.3,389.6,1142.1,393.6,1144.5,396.2z"/>
	<path class="st3" d="M1150.9,407.8L1150.9,407.8c2.4,2.6,6.5,2.7,9,0.3l21.5-20.1c2.6-2.4,2.7-6.5,0.3-9l0,0
		c-2.4-2.6-6.5-2.7-9-0.3l-21.5,20.1C1148.6,401.1,1148.5,405.2,1150.9,407.8z"/>
	<path class="st3" d="M1156.2,420.3L1156.2,420.3c2.4,2.6,6.5,2.7,9,0.3l21.5-20.1c2.6-2.4,2.7-6.5,0.3-9l0,0
		c-2.4-2.6-6.5-2.7-9-0.3l-21.5,20.1C1153.9,413.7,1153.8,417.8,1156.2,420.3z"/>
</g>
<path class="st2" d="M736.7,472.7L736.7,472.7c5.4,8.6,16.8,11.2,25.5,5.7l116.1-73.5c8.6-5.4,11.2-16.8,5.7-25.5l0,0
	c-5.4-8.6-16.8-11.2-25.5-5.7l-116.1,73.5C733.8,452.7,731.2,464.1,736.7,472.7z"/>
<path class="st2" d="M738,450.3L738,450.3c-7.9,6.5-9,18.1-2.6,26l87.1,106.3c6.5,7.9,18.1,9,26,2.6l0,0c7.9-6.5,9-18.1,2.6-26
	l-87.1-106.3C757.5,445,745.9,443.8,738,450.3z"/>
<g>
	<path class="st3" d="M830.4,581.4l-7.6,8.4l26.3,23.8c2.3,2.1,5.9,1.9,8-0.4l0,0c2.1-2.3,1.9-5.9-0.4-8L830.4,581.4z"/>
	<path class="st3" d="M838.4,572.7l-7.3,8.7l32.8,27.7c2.4,2,6,1.7,8-0.7l0,0c2-2.4,1.7-6-0.7-8L838.4,572.7z"/>
	<path class="st3" d="M848.2,567.5l-6.4,9.4l35.6,24c2.6,1.8,6.1,1.1,7.9-1.5l0,0c1.8-2.6,1.1-6.1-1.5-7.9L848.2,567.5z"/>
	<path class="st3" d="M848.1,558l-4.5,10.4l39.4,17c2.9,1.2,6.2-0.1,7.5-3l0,0c1.2-2.9-0.1-6.2-3-7.5L848.1,558z"/>
	<path class="st3" d="M842.7,552.1l0.7,11.3l25.8-1.5c3.1-0.2,5.5-2.9,5.3-6l0,0c-0.2-3.1-2.9-5.5-6-5.3L842.7,552.1z"/>
	<path class="st3" d="M849.7,553.7l7.5,5.1c1.4,0.9,1.7,2.8,0.8,4.2l-22.2,32.9c-0.9,1.4-2.8,1.7-4.2,0.8l-7.5-5.1
		c-5.2-3.5-6.6-10.5-3.1-15.7l12.9-19.1C837.5,551.6,844.5,550.2,849.7,553.7z"/>
</g>
<path class="st3" d="M934,361.8c0,13.4-10.9,24.5-24.3,24.5h0h-0.2c-13.4,0-24.5-11.1-24.5-24.5v-21.5h49V361.8z"/>
<path class="st4" d="M885,356.2c9.5,4.1,19.4,6.3,28.9,6.3c6.6,0,13.4-1.1,20.1-3.1v-15.5h-49V356.2z"/>
<path class="st3" d="M913.8,351.2c-34.9,0-76.8-30.5-76.8-73.2V149.5h154.1V278C991.1,320.7,948.7,351.2,913.8,351.2z"/>
<rect x="818.9" y="206.6" class="st5" width="36.3" height="39"/>
<circle class="st3" cx="836.6" cy="243.3" r="21.9"/>
<path class="st6" d="M832.2,246.4c0-4.3,3.5-7.8,7.8-7.8c1.2,0,2.3,0.3,3.3,0.7c-1.4-2.3-3.8-3.8-6.7-3.8c-4.3,0-7.8,3.5-7.8,7.8
	c0,3.1,1.8,5.8,4.5,7C832.6,249.2,832.2,247.9,832.2,246.4z"/>
<path class="st5" d="M849.7,145.5v0.4h-9.6c-11.7,0-21.2,9.3-21.2,20.9l0-0.2v29.9v24.6h36.3v-11.1c0-7.4,5.7-13.3,13.2-13.3h118
	c14.1,0,25.6-11.6,25.6-25.7v-51.3H875.5C861.4,119.6,849.7,131.4,849.7,145.5z"/>
<polygon class="st5" points="1005.6,237 990.2,226.1 990.2,184.8 1005.6,184.8 "/>
<circle class="st3" cx="992.8" cy="243.3" r="21.9"/>
<path class="st6" d="M1000,246.4c0-4.3-3.5-7.8-7.8-7.8c-1.2,0-2.3,0.3-3.3,0.7c1.4-2.3,3.8-3.8,6.7-3.8c4.3,0,7.8,3.5,7.8,7.8
	c0,3.1-1.8,5.8-4.5,7C999.6,249.2,1000,247.9,1000,246.4z"/>
<path class="st7" d="M895.3,281.1c0,13.6,11.1,24.7,24.7,24.7h0c13.6,0,24.7-11.1,24.7-24.7"/>
<path class="st6" d="M915.8,255.1v15.9c0,0.7,0.9,1.3,1.6,1.3h9.4c2.6,0,4-3,2.3-4.9l-10.9-13C917.5,253.3,915.8,253.9,915.8,255.1z
	"/>
<ellipse class="st5" cx="888.9" cy="246" rx="5" ry="8.8"/>
<ellipse class="st5" cx="952.4" cy="246" rx="5" ry="8.8"/>
</svg>
