<?xml version="1.0" encoding="utf-8"?>
<!-- Generator: Adobe Illustrator 19.2.0, SVG Export Plug-In . SVG Version: 6.00 Build 0)  -->
<svg version="1.1" id="Layer_1" xmlns="http://www.w3.org/2000/svg" xmlns:xlink="http://www.w3.org/1999/xlink" x="0px" y="0px"
	 viewBox="0 0 1920 1080" style="enable-background:new 0 0 1920 1080;" xml:space="preserve">
<style type="text/css">
	.st0{fill:#754C24;}
	.st1{fill:#4D4D4D;}
	.st2{fill:#333333;}
	.st3{fill:#F69B76;}
	.st4{fill:#F8C09D;}
	.st5{fill:#F6AE8D;}
	.st6{fill:#EF937E;}
	.st7{fill:none;stroke:#EF937E;stroke-width:4.5315;stroke-linecap:round;stroke-miterlimit:10;}
</style>
<path class="st0" d="M1110.7,877.1l15.6,37.9l74.9-30.4c0,0-9.8-15.8-29.5-11.5c-19.7,4.3-30.9,21.1-30.9,21.1l-12.4-24.4
	L1110.7,877.1z"/>
<path class="st1" d="M1102.9,882.7l37.3-18c0,0-21.6-59-47.9-117.9c-36.7-82.3-151.5-113.6-151.5-113.6l-16.6,40
	c0,0,97,24.5,128.6,85.2C1083.2,816.4,1102.9,882.7,1102.9,882.7z"/>
<path class="st0" d="M744.2,746.8l-36.7-18.3l-36.4,72.1c0,0,17.8,5.5,29.8-10.7c12-16.1,9.4-36.2,9.4-36.2l25.4,10.3L744.2,746.8z"
	/>
<path class="st2" d="M747.5,735.6l-16.3,35c0,0,129.5,57,168-16c33.1-62.7,67.5-135,67.5-135l-37.6-16.3c0,0-32.3,71.9-68.4,137.1
	C841.3,775.6,747.5,735.6,747.5,735.6z"/>
<path class="st1" d="M941.8,677.9l-1.3-0.2c-41.1-6.7-68.8-45.9-62.1-87l0-0.2l150,24.6l0,0.2C1021.6,656.4,982.8,684.7,941.8,677.9
	z"/>
<path class="st3" d="M994.1,399.1L994.1,399.1c37.5,6.1,62.9,41.5,56.8,79.1c0,0-27.9,45.3-22.4,136.9c0.2,2.8-150-24.6-150-24.6
	l1-11.7c7-62.4,28.9-127,51.2-161.5C941.6,400.4,974.7,396,994.1,399.1z"/>
<path class="st3" d="M1008.4,429.4L1008.4,429.4c-5.2,8.7-2.4,20.1,6.3,25.3c0,0,21.4,40.8,76,72.7c54.7,31.9,88.6,26.2,88.6,26.2
	c8.7,5.2,20.1,2.4,25.3-6.3h0c5.2-8.7,2.4-20.1-6.3-25.3c0,0-34.2,6.5-90.3-27.2s-74.4-71.7-74.4-71.7
	C1025,417.8,1013.7,420.7,1008.4,429.4z"/>
<g>
	<path class="st4" d="M1192.2,549.4l-2.5,11.1l34.6,7.9c3.1,0.7,6.1-1.2,6.8-4.3l0,0c0.7-3.1-1.2-6.1-4.3-6.8L1192.2,549.4z"/>
	<path class="st4" d="M1194.9,538l-2.1,11.2l42.1,8.1c3.1,0.6,6.1-1.4,6.7-4.5v0c0.6-3.1-1.4-6.1-4.5-6.7L1194.9,538z"/>
	<path class="st4" d="M1200.9,528.6l-0.9,11.3l42.8,3.5c3.1,0.3,5.9-2.1,6.1-5.2l0,0c0.3-3.1-2.1-5.9-5.2-6.1L1200.9,528.6z"/>
	<path class="st4" d="M1196.2,520.3l1.2,11.3l42.7-4.4c3.1-0.3,5.4-3.1,5.1-6.2v0c-0.3-3.1-3.1-5.4-6.2-5.1L1196.2,520.3z"/>
	<path class="st4" d="M1188.5,517.8l6.1,9.6l21.8-13.9c2.6-1.7,3.4-5.2,1.7-7.8h0c-1.7-2.6-5.2-3.4-7.8-1.7L1188.5,517.8z"/>
	<path class="st4" d="M1195.4,515.8l9,0.7c1.7,0.1,2.9,1.6,2.7,3.2l-3.3,39.5c-0.1,1.7-1.6,2.9-3.2,2.7l-9-0.7
		c-6.2-0.5-10.9-6-10.4-12.2l1.9-22.9C1183.7,519.9,1189.2,515.3,1195.4,515.8z"/>
</g>
<path class="st3" d="M787.9,538.6L787.9,538.6c5.9,8.3,17.4,10.3,25.7,4.5c0,0,27.2-50.6,56.8-71.4s94.9-35.3,94.9-35.3
	c8.3-5.9,10.3-17.4,4.5-25.7l0,0c-5.9-8.3-17.4-10.3-25.7-4.5c0,0-64.2,13.6-94.3,34.8s-57.5,71.9-57.5,71.9
	C784,518.8,782,530.3,787.9,538.6z"/>
<g>
	<path class="st4" d="M785.2,530.7l-7.2-8.8l-27.6,22.4c-2.4,2-2.8,5.6-0.8,8v0c2,2.4,5.6,2.8,8,0.8L785.2,530.7z"/>
	<path class="st4" d="M792.5,540l-7.5-8.6l-32.4,28.2c-2.4,2.1-2.6,5.6-0.6,8l0,0c2.1,2.4,5.6,2.6,8,0.6L792.5,540z"/>
	<path class="st4" d="M796.2,550.5l-8.3-7.7l-29.2,31.5c-2.1,2.3-2,5.9,0.3,8l0,0c2.3,2.1,5.9,2,8-0.3L796.2,550.5z"/>
	<path class="st4" d="M805.6,551.8l-9.6-6.1l-22.9,36.3c-1.7,2.7-0.9,6.2,1.8,7.8l0,0c2.7,1.7,6.2,0.9,7.8-1.8L805.6,551.8z"/>
	<path class="st4" d="M812.3,547.4l-11.3-1.1l-2.5,25.7c-0.3,3.1,2,5.9,5.1,6.2l0,0c3.1,0.3,5.9-2,6.2-5.1L812.3,547.4z"/>
	<path class="st4" d="M809.6,554l-6.2,6.6c-1.1,1.2-3,1.3-4.2,0.2l-29.1-27c-1.2-1.1-1.3-3-0.2-4.2l6.2-6.6c4.3-4.6,11.4-4.9,16-0.6
		L809,538C813.6,542.3,813.9,549.4,809.6,554z"/>
</g>
<path class="st4" d="M1028.3,414.8c-3,13.1-16.1,21.4-29.1,18.4l0,0l-0.2-0.1c-13.1-3-21.4-16.3-18.4-29.3l4.9-21l47.7,11
	L1028.3,414.8z"/>
<path class="st5" d="M981.8,398.3c8.3,6.1,17.5,10.5,26.7,12.7c6.4,1.5,13.3,2,20.3,1.5l3.5-15.1l-47.7-11L981.8,398.3z"/>
<path class="st4" d="M1011.1,399.9c-34-7.9-68-47-58.4-88.6l29-125.2l150.1,34.7l-29,125.2C1093.2,387.7,1062.6,411.9,1011.1,399.9z
	"/>
<rect x="946.3" y="241.2" transform="matrix(0.9743 0.2254 -0.2254 0.9743 83.6026 -210.7125)" class="st2" width="36.3" height="39"/>
<ellipse transform="matrix(0.2254 -0.9743 0.9743 0.2254 473.3672 1150.309)" class="st4" cx="960.1" cy="277.4" rx="21.9" ry="21.9"/>
<path class="st6" d="M955.2,279.4c1-4.2,5.1-6.8,9.3-5.8c1.2,0.3,2.2,0.8,3,1.5c-0.8-2.5-2.9-4.6-5.6-5.2c-4.2-1-8.3,1.6-9.3,5.8
	c-0.7,3,0.5,6,2.8,7.8C954.9,282.3,954.8,280.9,955.2,279.4z"/>
<path class="st2" d="M995,185l-0.1,0.4l-9.3-2.2c-11.4-2.6-22.7,4.2-25.4,15.6l0-0.2l-6.7,29.1l-5.5,24l35.3,8.2l2.5-10.9
	c1.7-7.3,8.6-11.7,15.8-10l105,24.3c13.7,3.2,27.6-5.5,30.8-19.2l11.6-50l-123-28.5C1012.2,162.5,998.1,171.3,995,185z"/>
<path class="st7" d="M1035.2,333.5c-3.1,13.3,5.2,26.6,18.5,29.6h0c13.3,3.1,26.6-5.2,29.6-18.5"/>
<path class="st6" d="M1064.9,313.7l-3.6,15.4c-0.2,0.7,0.6,1.4,1.3,1.6l9.1,2.1c2.5,0.6,4.5-2,3.4-4.3l-7.6-15.1
	C1067,312.4,1065.2,312.6,1064.9,313.7z"/>
<ellipse transform="matrix(0.2254 -0.9743 0.9743 0.2254 511.2601 1237.5292)" class="st2" cx="1033.9" cy="297.2" rx="8.8" ry="5"/>
<ellipse transform="matrix(0.2254 -0.9743 0.9743 0.2254 545.2264 1308.8809)" class="st2" cx="1095.8" cy="311.5" rx="8.8" ry="5"/>
</svg>
